<svg width="62" height="52" viewBox="0 0 62 52" fill="none" xmlns="http://www.w3.org/2000/svg">
<path opacity="0.6" d="M5.46967 51.0303C5.76256 51.3232 6.23744 51.3232 6.53033 51.0303L11.3033 46.2574C11.5962 45.9645 11.5962 45.4896 11.3033 45.1967C11.0104 44.9038 10.5355 44.9038 10.2426 45.1967L6 49.4393L1.75736 45.1967C1.46447 44.9038 0.989593 44.9038 0.696699 45.1967C0.403806 45.4896 0.403806 45.9645 0.696699 46.2574L5.46967 51.0303ZM60.5 1.75C60.9142 1.75 61.25 1.41421 61.25 1C61.25 0.585786 60.9142 0.25 60.5 0.25V1V1.75ZM6 50.5H6.75C6.75 42.3856 9.43692 30.1842 17.4877 20.0284C25.5122 9.90576 38.9154 1.75 60.5 1.75V1V0.25C38.4846 0.25 24.6378 8.59424 16.3123 19.0966C8.01308 29.5658 5.25 42.1144 5.25 50.5H6Z" fill="white"/>
</svg>
