<svg width="78" height="78" viewBox="0 0 78 78" fill="none" xmlns="http://www.w3.org/2000/svg">
<path d="M58.5001 16.25C60.224 16.25 61.8773 16.9348 63.0963 18.1538C64.3153 19.3728 65.0001 21.0261 65.0001 22.75V50.4595C64.9997 51.4716 65.2356 52.4699 65.6891 53.3748L69.1601 60.2875C69.4107 60.7847 69.5293 61.3379 69.5046 61.8942C69.4799 62.4504 69.3128 62.991 69.0192 63.464C68.7255 63.9371 68.3153 64.3268 67.8278 64.5957C67.3403 64.8647 66.7919 65.0039 66.2351 65H11.7651C11.2084 65.0039 10.6599 64.8647 10.1724 64.5957C9.68495 64.3268 9.27472 63.9371 8.9811 63.464C8.68748 62.991 8.52031 62.4504 8.49563 61.8942C8.47094 61.3379 8.58957 60.7847 8.84013 60.2875L12.3111 53.3748C12.7646 52.4699 13.0006 51.4716 13.0001 50.4595V22.75C13.0001 21.0261 13.6849 19.3728 14.9039 18.1538C16.1229 16.9348 17.7762 16.25 19.5001 16.25H58.5001Z" stroke="url(#paint0_linear_367_2175)" stroke-width="6.5" stroke-linecap="round" stroke-linejoin="round"/>
<path d="M65.1757 51.957H12.8247" stroke="url(#paint1_linear_367_2175)" stroke-width="6.5" stroke-linecap="round" stroke-linejoin="round"/>
<defs>
<linearGradient id="paint0_linear_367_2175" x1="69.5078" y1="65.0001" x2="23.3673" y2="4.84128" gradientUnits="userSpaceOnUse">
<stop offset="0.0162427" stop-color="#2462E8"/>
<stop offset="1" stop-color="#143C8E"/>
</linearGradient>
<linearGradient id="paint1_linear_367_2175" x1="65.1757" y1="52.957" x2="65.1398" y2="50.9977" gradientUnits="userSpaceOnUse">
<stop offset="0.0162427" stop-color="#2462E8"/>
<stop offset="1" stop-color="#143C8E"/>
</linearGradient>
</defs>
</svg>
