<svg width="20" height="19" viewBox="0 0 20 19" fill="none" xmlns="http://www.w3.org/2000/svg">
<path d="M7.86436 3.92059C7.70144 3.7581 7.50022 3.63926 7.27926 3.57504C7.0583 3.51082 6.82472 3.50329 6.60009 3.55314C6.37545 3.60299 6.16699 3.70862 5.99394 3.86028C5.82089 4.01194 5.68882 4.20474 5.60993 4.4209L1.05859 16.9399C0.983827 17.1463 0.959676 17.3677 0.988169 17.5854C1.01666 17.8031 1.09697 18.0108 1.22234 18.1911C1.34772 18.3713 1.51451 18.5189 1.70871 18.6213C1.90291 18.7238 2.11885 18.7781 2.33841 18.7799C2.50007 18.7788 2.66029 18.7494 2.81184 18.6931L15.33 14.1409C15.5462 14.0622 15.7391 13.9302 15.8908 13.7572C16.0426 13.5841 16.1483 13.3757 16.1983 13.151C16.2482 12.9264 16.2408 12.6928 16.1766 12.4718C16.1124 12.2508 15.9936 12.0495 15.8312 11.8865L7.86436 3.92059ZM7.14208 15.6445L4.10727 12.6097L5.24836 9.46995L10.2818 14.5034L7.14208 15.6445ZM2.3731 17.3786L3.58702 14.0482L5.70705 16.1682L2.3731 17.3786ZM11.7238 13.9797L5.77208 8.02798L6.89929 4.91774L14.8271 12.8455L11.7238 13.9797ZM12.0706 5.60014C12.0836 5.13119 12.1972 4.67051 12.4036 4.24922C12.8631 3.33097 13.7302 2.82546 14.8453 2.82546C15.4262 2.82546 15.7991 2.6269 16.0288 2.20029C16.1498 1.96162 16.2193 1.70017 16.2326 1.43292C16.2333 1.24895 16.3071 1.07278 16.4376 0.943181C16.5682 0.813581 16.7449 0.74116 16.9289 0.741849C17.1129 0.742539 17.289 0.816284 17.4186 0.94686C17.5482 1.07744 17.6206 1.25415 17.62 1.43812C17.62 2.55319 16.8812 4.2128 14.8453 4.2128C14.2643 4.2128 13.8915 4.41136 13.6617 4.83797C13.5407 5.07664 13.4713 5.33809 13.4579 5.60534C13.4576 5.69643 13.4393 5.78657 13.4041 5.8706C13.369 5.95463 13.3176 6.0309 13.2529 6.09508C13.1883 6.15925 13.1116 6.21006 13.0273 6.2446C12.943 6.27915 12.8528 6.29675 12.7617 6.29641C12.6706 6.29607 12.5804 6.27779 12.4964 6.24261C12.4124 6.20743 12.3361 6.15605 12.2719 6.0914C12.2078 6.02674 12.1569 5.95008 12.1224 5.86579C12.0879 5.7815 12.0703 5.69123 12.0706 5.60014ZM9.98959 2.82546V0.744451C9.98959 0.560478 10.0627 0.384041 10.1928 0.253952C10.3228 0.123864 10.4993 0.0507813 10.6833 0.0507812C10.8672 0.0507813 11.0437 0.123864 11.1738 0.253952C11.3038 0.384041 11.3769 0.560478 11.3769 0.744451V2.82546C11.3769 3.00943 11.3038 3.18587 11.1738 3.31596C11.0437 3.44605 10.8672 3.51913 10.6833 3.51913C10.4993 3.51913 10.3228 3.44605 10.1928 3.31596C10.0627 3.18587 9.98959 3.00943 9.98959 2.82546ZM18.8044 9.96505C18.8688 10.0295 18.9199 10.106 18.9547 10.1902C18.9895 10.2744 19.0074 10.3646 19.0074 10.4557C19.0073 10.5468 18.9893 10.637 18.9544 10.7212C18.9195 10.8053 18.8684 10.8818 18.804 10.9462C18.7395 11.0106 18.663 11.0616 18.5788 11.0964C18.4946 11.1313 18.4044 11.1492 18.3133 11.1491C18.2222 11.1491 18.132 11.1311 18.0479 11.0962C17.9637 11.0613 17.8872 11.0102 17.8229 10.9457L16.4355 9.55839C16.3054 9.42823 16.2322 9.25169 16.2322 9.06762C16.2322 8.88354 16.3054 8.70701 16.4355 8.57685C16.5657 8.44669 16.7422 8.37356 16.9263 8.37356C17.1104 8.37356 17.2869 8.44669 17.4171 8.57685L18.8044 9.96505ZM19.2267 6.25826L17.1457 6.95193C16.9711 7.01011 16.7806 6.99657 16.616 6.91429C16.4515 6.83201 16.3263 6.68772 16.2682 6.51318C16.21 6.33864 16.2235 6.14813 16.3058 5.98357C16.3881 5.81901 16.5324 5.69387 16.7069 5.63569L18.7879 4.94202C18.9625 4.88384 19.153 4.89738 19.3175 4.97966C19.4821 5.06194 19.6072 5.20622 19.6654 5.38076C19.7236 5.55531 19.7101 5.74582 19.6278 5.91038C19.5455 6.07494 19.4012 6.20007 19.2267 6.25826Z" fill="#5F91FF"/>
</svg>
