<svg width="26" height="18" viewBox="0 0 26 18" fill="none" xmlns="http://www.w3.org/2000/svg">
<path d="M23.68 0C24.2133 0 24.48 0.266668 24.48 0.800003V5.12C24.48 5.65334 24.2133 5.92 23.68 5.92H21.408C20.7893 5.92 20.48 6.18667 20.48 6.72V7.648H24.416C24.9493 7.648 25.216 7.91467 25.216 8.448L25.152 16.256C25.152 16.7893 24.8853 17.056 24.352 17.056H14.656C14.1227 17.056 13.856 16.7893 13.856 16.256V6.848C13.856 4.544 14.4 2.82667 15.488 1.696C16.576 0.565334 18.0267 0 19.84 0H23.68ZM9.824 0C10.3573 0 10.624 0.266668 10.624 0.800003V5.12C10.624 5.65334 10.3573 5.92 9.824 5.92H7.552C6.93333 5.92 6.624 6.18667 6.624 6.72V7.648H10.56C11.0933 7.648 11.36 7.91467 11.36 8.448L11.296 16.256C11.296 16.7893 11.0293 17.056 10.496 17.056H0.8C0.266667 17.056 0 16.7893 0 16.256V6.848C0 4.544 0.544 2.82667 1.632 1.696C2.72 0.565334 4.17067 0 5.984 0H9.824Z" fill="url(#paint0_linear_367_2765)"/>
<defs>
<linearGradient id="paint0_linear_367_2765" x1="25.216" y1="17.056" x2="9.9476" y2="-6.45902" gradientUnits="userSpaceOnUse">
<stop offset="0.0162427" stop-color="#2462E8"/>
<stop offset="1" stop-color="#143C8E"/>
</linearGradient>
</defs>
</svg>
